<?xml version="1.0" encoding="iso-8859-1"?>
<!-- Uploaded to: SVG Repo, www.svgrepo.com, Generator: SVG Repo Mixer Tools -->
<svg version="1.1" id="Layer_1" xmlns="http://www.w3.org/2000/svg" xmlns:xlink="http://www.w3.org/1999/xlink" 
	 viewBox="0 0 392.533 392.533" xml:space="preserve">
<g>
	<path style="fill:#FFFFFF;" d="M185.374,21.786H43.604c-12.024,0-21.786,9.826-21.786,21.786v141.705h163.556V21.786z"/>
	<path style="fill:#FFFFFF;" d="M370.78,43.572c0-12.024-9.826-21.786-21.786-21.786h-141.77v163.556H370.78V43.572z"/>
	<path style="fill:#FFFFFF;" d="M207.224,370.747h141.705c12.024,0,21.786-9.826,21.786-21.786v-141.77H207.224V370.747z"/>
	<path style="fill:#FFFFFF;" d="M21.818,348.962c0,12.024,9.826,21.786,21.786,21.786h141.705V207.192H21.818V348.962z"/>
</g>
<rect x="43.604" y="43.572" style="fill:#56ACE0;" width="119.919" height="119.919"/>
<rect x="229.01" y="228.978" style="fill:#FFC10D;" width="119.919" height="119.919"/>
<g>
	<path style="fill:#194F82;" d="M323.394,92.638h-23.596V69.172c0-6.012-4.848-10.925-10.925-10.925
		c-6.012,0-10.925,4.848-10.925,10.925v23.596h-23.467c-6.012,0-10.925,4.848-10.925,10.925c0,6.012,4.848,10.925,10.925,10.925
		h23.596v23.467c0,6.012,4.848,10.925,10.925,10.925c6.012,0,10.925-4.848,10.925-10.925v-23.596h23.596
		c6.012,0,10.925-4.848,10.925-10.925C334.319,97.616,329.471,92.638,323.394,92.638z"/>
	<path style="fill:#194F82;" d="M65.972,141.317c4.267,4.267,11.119,4.267,15.451,0l22.238-22.238l22.238,22.238
		c4.267,4.267,11.119,4.267,15.451,0c4.267-4.267,4.267-11.119,0-15.451l-22.303-22.238l22.303-22.303
		c4.267-4.267,4.267-11.119,0-15.451c-4.267-4.331-11.119-4.267-15.451,0l-22.303,22.303L81.357,65.939
		c-4.267-4.267-11.119-4.267-15.451,0c-4.267,4.267-4.267,11.119,0,15.451l22.238,22.238l-22.238,22.238
		C61.64,130.133,61.64,136.986,65.972,141.317z"/>
	<path style="fill:#194F82;" d="M254.545,299.895h68.913c6.012,0,10.925-4.848,10.925-10.925c0-6.012-4.848-10.925-10.925-10.925
		h-68.913c-6.012,0-10.925,4.848-10.925,10.925C243.62,294.917,248.533,299.895,254.545,299.895z"/>
	<path style="fill:#194F82;" d="M69.204,299.895h68.913c6.012,0,10.925-4.848,10.925-10.925c0-6.012-4.848-10.925-10.925-10.925
		H69.204c-6.012,0-10.925,4.848-10.925,10.925C58.279,294.917,63.127,299.895,69.204,299.895z"/>
	<path style="fill:#194F82;" d="M100.493,267.895h6.271c6.012,0,10.925-4.848,10.925-10.925c0-6.077-4.848-10.925-10.925-10.925
		h-6.271c-6.012,0-10.925,4.848-10.925,10.925C89.568,263.046,94.481,267.895,100.493,267.895z"/>
	<path style="fill:#194F82;" d="M106.764,310.044h-6.271c-6.012,0-10.925,4.848-10.925,10.925c0,6.012,4.848,10.925,10.925,10.925
		h6.271c6.012,0,10.925-4.848,10.925-10.925C117.624,314.893,112.776,310.044,106.764,310.044z"/>
	<path style="fill:#194F82;" d="M348.994,0H43.604C19.555,0,0.032,19.523,0.032,43.572v305.325
		c0,24.113,19.523,43.636,43.572,43.636h305.325c24.048,0,43.572-19.523,43.572-43.572V43.572C392.566,19.523,373.042,0,348.994,0z
		 M185.374,370.747H43.604c-12.024,0-21.786-9.826-21.786-21.786v-141.77h163.556V370.747z M185.374,185.341H21.818V43.572
		c0-12.024,9.826-21.786,21.786-21.786h141.705v163.556H185.374z M370.78,348.962c0,12.024-9.826,21.786-21.786,21.786h-141.77
		V207.192H370.78V348.962z M370.78,185.341H207.224V21.786h141.705c12.024,0,21.786,9.826,21.786,21.786v141.77H370.78z"/>
</g>
</svg>